<svg width="61" height="60" viewBox="0 0 61 60" fill="none" xmlns="http://www.w3.org/2000/svg">
<rect x="1" y="0.5" width="59" height="59" rx="29.5" stroke="#B4B4B4"/>
<path d="M24.7755 23.0436C24.2957 22.5636 23.5201 22.5636 23.0403 23.0436C19.2001 26.8713 19.2001 33.1236 23.0403 36.9636C23.5007 37.4242 24.2861 37.4532 24.7755 36.9636C25.2557 36.4836 25.2557 35.7082 24.7755 35.2282C21.8954 32.3482 21.8954 27.659 24.7755 24.779C25.2557 24.2989 25.2557 23.5236 24.7755 23.0436Z" fill="#B4B4B4"/>
<path d="M40.4431 40.4454C46.203 34.6854 46.203 25.3192 40.4431 19.5592C39.9632 19.0792 39.1877 19.0792 38.7078 19.5592C38.2276 20.0393 38.2276 20.8146 38.7078 21.2947C43.5077 26.0946 43.5077 33.91 38.7078 38.6977C38.2276 39.1777 38.2276 39.9654 38.7078 40.4454C39.1975 40.9353 39.983 40.9057 40.4431 40.4454Z" fill="#B4B4B4"/>
<path d="M35.2251 36.9636C35.6864 37.425 36.4717 37.4522 36.9607 36.9636C40.8006 33.1236 40.8006 26.8836 36.9607 23.0436C36.4805 22.5636 35.7053 22.5636 35.2251 23.0436C34.7453 23.5236 34.7453 24.2989 35.2251 24.779C38.1052 27.659 38.1052 32.3482 35.2251 35.2282C34.7453 35.7082 34.7453 36.4836 35.2251 36.9636Z" fill="#B4B4B4"/>
<path d="M19.5572 40.4454C20.0773 40.9396 20.8355 40.9026 21.2925 40.4454C21.7727 39.9654 21.7727 39.1777 21.2925 38.6977C16.4926 33.91 16.4926 26.0946 21.2925 21.2947C21.7727 20.8146 21.7727 20.0393 21.2925 19.5592C20.8127 19.0792 20.0374 19.0792 19.5572 19.5592C13.7973 25.3192 13.7973 34.6854 19.5572 40.4454Z" fill="#B4B4B4"/>
<path d="M30.0063 25.9414C27.7668 25.9414 25.9531 27.7655 25.9531 29.9947C25.9531 32.2341 27.7668 34.048 30.0063 34.048C32.2356 34.048 34.0595 32.2341 34.0595 29.9947C34.0595 27.7655 32.2356 25.9414 30.0063 25.9414Z" fill="#B4B4B4"/>
</svg>
