<svg width="24" height="25" viewBox="0 0 24 25" fill="none" xmlns="http://www.w3.org/2000/svg">
<path d="M22.5 21.2998C22.5 21.2998 24 21.2998 24 19.7998C24 18.2998 22.5 13.7998 16.5 13.7998C10.5 13.7998 9 18.2998 9 19.7998C9 21.2998 10.5 21.2998 10.5 21.2998H22.5ZM10.533 19.7998C10.5219 19.7983 10.5109 19.7963 10.5 19.7938C10.5015 19.3978 10.7505 18.2488 11.64 17.2138C12.468 16.2433 13.923 15.2998 16.5 15.2998C19.0755 15.2998 20.5305 16.2448 21.36 17.2138C22.2495 18.2488 22.497 19.3993 22.5 19.7938L22.488 19.7968C22.481 19.798 22.474 19.799 22.467 19.7998H10.533ZM16.5 10.7998C17.2956 10.7998 18.0587 10.4837 18.6213 9.92113C19.1839 9.35852 19.5 8.59545 19.5 7.7998C19.5 7.00416 19.1839 6.24109 18.6213 5.67848C18.0587 5.11588 17.2956 4.7998 16.5 4.7998C15.7044 4.7998 14.9413 5.11588 14.3787 5.67848C13.8161 6.24109 13.5 7.00416 13.5 7.7998C13.5 8.59545 13.8161 9.35852 14.3787 9.92113C14.9413 10.4837 15.7044 10.7998 16.5 10.7998ZM21 7.7998C21 8.39075 20.8836 8.97591 20.6575 9.52188C20.4313 10.0678 20.0998 10.5639 19.682 10.9818C19.2641 11.3996 18.768 11.7311 18.2221 11.9573C17.6761 12.1834 17.0909 12.2998 16.5 12.2998C15.9091 12.2998 15.3239 12.1834 14.7779 11.9573C14.232 11.7311 13.7359 11.3996 13.318 10.9818C12.9002 10.5639 12.5687 10.0678 12.3425 9.52188C12.1164 8.97591 12 8.39075 12 7.7998C12 6.60633 12.4741 5.46174 13.318 4.61782C14.1619 3.77391 15.3065 3.2998 16.5 3.2998C17.6935 3.2998 18.8381 3.77391 19.682 4.61782C20.5259 5.46174 21 6.60633 21 7.7998ZM10.404 14.2198C9.80397 14.0309 9.18545 13.9067 8.559 13.8493C8.207 13.8158 7.85359 13.7993 7.5 13.7998C1.5 13.7998 0 18.2998 0 19.7998C0 20.8003 0.4995 21.2998 1.5 21.2998H7.824C7.60163 20.8315 7.49074 20.3181 7.5 19.7998C7.5 18.2848 8.0655 16.7368 9.135 15.4438C9.4995 15.0028 9.924 14.5903 10.404 14.2198ZM7.38 15.2998C6.49223 16.6337 6.01266 18.1975 6 19.7998H1.5C1.5 19.4098 1.746 18.2548 2.64 17.2138C3.4575 16.2598 4.878 15.3298 7.38 15.3013V15.2998ZM2.25 8.5498C2.25 7.35633 2.72411 6.21174 3.56802 5.36782C4.41193 4.52391 5.55653 4.0498 6.75 4.0498C7.94347 4.0498 9.08807 4.52391 9.93198 5.36782C10.7759 6.21174 11.25 7.35633 11.25 8.5498C11.25 9.74328 10.7759 10.8879 9.93198 11.7318C9.08807 12.5757 7.94347 13.0498 6.75 13.0498C5.55653 13.0498 4.41193 12.5757 3.56802 11.7318C2.72411 10.8879 2.25 9.74328 2.25 8.5498ZM6.75 5.5498C5.95435 5.5498 5.19129 5.86588 4.62868 6.42848C4.06607 6.99109 3.75 7.75416 3.75 8.5498C3.75 9.34545 4.06607 10.1085 4.62868 10.6711C5.19129 11.2337 5.95435 11.5498 6.75 11.5498C7.54565 11.5498 8.30871 11.2337 8.87132 10.6711C9.43393 10.1085 9.75 9.34545 9.75 8.5498C9.75 7.75416 9.43393 6.99109 8.87132 6.42848C8.30871 5.86588 7.54565 5.5498 6.75 5.5498Z" fill="#161723"></path>
</svg>