<svg width="24" height="25" viewBox="0 0 24 25" fill="none" xmlns="http://www.w3.org/2000/svg">
<g clip-path="url(#clip0_4598_31724)">
<path fill-rule="evenodd" clip-rule="evenodd" d="M15.532 9.51437C15.6018 9.58404 15.6572 9.6668 15.695 9.75792C15.7328 9.84904 15.7523 9.94672 15.7523 10.0454C15.7523 10.144 15.7328 10.2417 15.695 10.3328C15.6572 10.4239 15.6018 10.5067 15.532 10.5764L11.032 15.0764C10.9623 15.1462 10.8795 15.2016 10.7884 15.2394C10.6973 15.2773 10.5996 15.2967 10.501 15.2967C10.4023 15.2967 10.3046 15.2773 10.2135 15.2394C10.1224 15.2016 10.0396 15.1462 9.96996 15.0764L7.71996 12.8264C7.65022 12.7566 7.59491 12.6739 7.55717 12.5827C7.51943 12.4916 7.50001 12.394 7.50001 12.2954C7.50001 12.1968 7.51943 12.0991 7.55717 12.008C7.59491 11.9169 7.65022 11.8341 7.71996 11.7644C7.78969 11.6946 7.87247 11.6393 7.96358 11.6016C8.05469 11.5638 8.15234 11.5444 8.25096 11.5444C8.34957 11.5444 8.44722 11.5638 8.53833 11.6016C8.62944 11.6393 8.71222 11.6946 8.78196 11.7644L10.501 13.4849L14.47 9.51437C14.5396 9.44453 14.6224 9.38911 14.7135 9.3513C14.8046 9.31349 14.9023 9.29403 15.001 9.29403C15.0996 9.29403 15.1973 9.31349 15.2884 9.3513C15.3795 9.38911 15.4623 9.44453 15.532 9.51437Z" fill="#161723"></path>
<path d="M15.4288 4.08568L14.0473 2.66968L15.1198 1.62268L16.0528 2.57818L17.3878 2.56168C17.9657 2.55484 18.5391 2.66361 19.0743 2.88161C19.6095 3.0996 20.0958 3.42242 20.5044 3.83106C20.9131 4.23971 21.2359 4.72594 21.4539 5.26117C21.6719 5.79639 21.7806 6.3698 21.7738 6.94768L21.7588 8.28268L22.7128 9.21568C23.126 9.61943 23.4543 10.1017 23.6785 10.6341C23.9026 11.1666 24.0181 11.7385 24.0181 12.3162C24.0181 12.8939 23.9026 13.4658 23.6785 13.9982C23.4543 14.5307 23.126 15.0129 22.7128 15.4167L21.7573 16.3497L21.7738 17.6847C21.7806 18.2626 21.6719 18.836 21.4539 19.3712C21.2359 19.9064 20.9131 20.3926 20.5044 20.8013C20.0958 21.2099 19.6095 21.5327 19.0743 21.7507C18.5391 21.9687 17.9657 22.0775 17.3878 22.0707L16.0528 22.0557L15.1198 23.0097C14.716 23.4229 14.2338 23.7512 13.7013 23.9753C13.1689 24.1995 12.597 24.315 12.0193 24.315C11.4416 24.315 10.8697 24.1995 10.3373 23.9753C9.80483 23.7512 9.32256 23.4229 8.9188 23.0097L7.9858 22.0542L6.6508 22.0707C6.07293 22.0775 5.49952 21.9687 4.96429 21.7507C4.42907 21.5327 3.94284 21.2099 3.53419 20.8013C3.12554 20.3926 2.80273 19.9064 2.58473 19.3712C2.36674 18.836 2.25796 18.2626 2.2648 17.6847L2.2798 16.3497L1.3258 15.4167C0.912611 15.0129 0.584292 14.5307 0.360135 13.9982C0.135979 13.4658 0.0205078 12.8939 0.0205078 12.3162C0.0205078 11.7385 0.135979 11.1666 0.360135 10.6341C0.584292 10.1017 0.912611 9.61943 1.3258 9.21568L2.2813 8.28268L2.2648 6.94768C2.25796 6.3698 2.36674 5.79639 2.58473 5.26117C2.80273 4.72594 3.12554 4.23971 3.53419 3.83106C3.94284 3.42242 4.42907 3.0996 4.96429 2.88161C5.49952 2.66361 6.07293 2.55484 6.6508 2.56168L7.9858 2.57668L8.9188 1.62268C9.32256 1.20949 9.80483 0.881167 10.3373 0.65701C10.8697 0.432854 11.4416 0.317383 12.0193 0.317383C12.597 0.317383 13.1689 0.432854 13.7013 0.65701C14.2338 0.881167 14.716 1.20949 15.1198 1.62268L14.0473 2.66968C13.7832 2.39936 13.4678 2.18455 13.1195 2.0379C12.7713 1.89124 12.3972 1.8157 12.0193 1.8157C11.6414 1.8157 11.2673 1.89124 10.9191 2.0379C10.5708 2.18455 10.2554 2.39936 9.9913 2.66968L8.6113 4.08568L6.6313 4.06168C6.25357 4.05745 5.8788 4.12876 5.52901 4.27142C5.17923 4.41407 4.86148 4.62519 4.59443 4.89237C4.32739 5.15956 4.11644 5.47742 3.97396 5.82728C3.83149 6.17714 3.76038 6.55194 3.7648 6.92968L3.7888 8.90668L2.3728 10.2882C2.10248 10.5522 1.88768 10.8677 1.74102 11.2159C1.59437 11.5642 1.51882 11.9383 1.51882 12.3162C1.51882 12.6941 1.59437 13.0681 1.74102 13.4164C1.88768 13.7647 2.10248 14.0801 2.3728 14.3442L3.7888 15.7242L3.7648 17.7042C3.76058 18.0819 3.83189 18.4567 3.97454 18.8065C4.1172 19.1562 4.32832 19.474 4.5955 19.741C4.86268 20.0081 5.18054 20.219 5.5304 20.3615C5.88026 20.504 6.25507 20.5751 6.6328 20.5707L8.6098 20.5467L9.9913 21.9627C10.2554 22.233 10.5708 22.4478 10.9191 22.5945C11.2673 22.7411 11.6414 22.8167 12.0193 22.8167C12.3972 22.8167 12.7713 22.7411 13.1195 22.5945C13.4678 22.4478 13.7832 22.233 14.0473 21.9627L15.4273 20.5467L17.4073 20.5707C17.785 20.5749 18.1598 20.5036 18.5096 20.3609C18.8594 20.2183 19.1771 20.0072 19.4442 19.74C19.7112 19.4728 19.9222 19.1549 20.0646 18.8051C20.2071 18.4552 20.2782 18.0804 20.2738 17.7027L20.2498 15.7257L21.6658 14.3442C21.9361 14.0801 22.1509 13.7647 22.2976 13.4164C22.4442 13.0681 22.5198 12.6941 22.5198 12.3162C22.5198 11.9383 22.4442 11.5642 22.2976 11.2159C22.1509 10.8677 21.9361 10.5522 21.6658 10.2882L20.2498 8.90818L20.2738 6.92818C20.278 6.55044 20.2067 6.17567 20.0641 5.82589C19.9214 5.4761 19.7103 5.15835 19.4431 4.89131C19.1759 4.62426 18.8581 4.41331 18.5082 4.27084C18.1583 4.12837 17.7835 4.05726 17.4058 4.06168L15.4288 4.08568Z" fill="#161723"></path>
</g>
<defs>
<clipPath id="clip0_4598_31724">
<rect width="24" height="24" fill="white" transform="translate(0 0.299805)"></rect>
</clipPath>
</defs>
</svg>