<svg width="60" height="60" viewBox="0 0 60 60" fill="none" xmlns="http://www.w3.org/2000/svg">
<rect x="0.5" y="0.5" width="59" height="59" rx="29.5" stroke="#B4B4B4"/>
<path d="M16.5612 38V35.8111L22.3684 30.1183C22.9238 29.5574 23.3866 29.0592 23.7569 28.6236C24.1271 28.188 24.4048 27.766 24.59 27.3576C24.7751 26.9492 24.8677 26.5136 24.8677 26.0508C24.8677 25.5226 24.7479 25.0707 24.5083 24.695C24.2687 24.3138 23.9393 24.0198 23.52 23.8129C23.1007 23.6059 22.6243 23.5025 22.0907 23.5025C21.5407 23.5025 21.0588 23.6168 20.645 23.8455C20.2312 24.0688 19.9099 24.3873 19.6812 24.8011C19.458 25.215 19.3464 25.7077 19.3464 26.2795H16.4632C16.4632 25.2177 16.7055 24.2947 17.1901 23.5107C17.6747 22.7266 18.3418 22.1194 19.1912 21.6893C20.0461 21.2591 21.0262 21.044 22.1315 21.044C23.2532 21.044 24.2388 21.2537 25.0882 21.6729C25.9376 22.0922 26.5965 22.6667 27.0648 23.3963C27.5385 24.1259 27.7753 24.959 27.7753 25.8956C27.7753 26.5218 27.6556 27.1371 27.416 27.7415C27.1764 28.3459 26.7544 29.0156 26.15 29.7507C25.551 30.4858 24.7098 31.3761 23.6262 32.4215L20.743 35.3537V35.468H28.0285V38H16.5612ZM31.0097 38V21.2727H34.0399V28.9585H34.2441L40.77 21.2727H44.4699L38.0012 28.7788L44.5271 38H40.8844L35.894 30.8288L34.0399 33.0178V38H31.0097Z" fill="#B4B4B4"/>
</svg>
