<svg width="24" height="25" viewBox="0 0 24 25" fill="none" xmlns="http://www.w3.org/2000/svg">
  <g clip-path="url(#clip0_4598_31720)">
  <path d="M4.29918 22.5765C4.18218 23.2425 4.83918 23.763 5.41818 23.466L12.0032 20.082L18.5867 23.466C19.1657 23.763 19.8227 23.2425 19.7057 22.578L18.4607 15.483L23.7437 10.449C24.2387 9.97802 23.9837 9.11702 23.3207 9.02402L15.9737 7.98002L12.6977 1.48952C12.6353 1.35795 12.5368 1.24679 12.4137 1.16896C12.2907 1.09112 12.148 1.0498 12.0024 1.0498C11.8568 1.0498 11.7142 1.09112 11.5911 1.16896C11.468 1.24679 11.3696 1.35795 11.3072 1.48952L8.03118 7.98152L0.684177 9.02552C0.0226774 9.11852 -0.233823 9.97952 0.259677 10.4505L5.54418 15.4845L4.29918 22.5795V22.5765ZM11.6567 18.426L6.12768 21.267L7.16868 15.3315C7.19306 15.1949 7.18352 15.0544 7.14089 14.9223C7.09826 14.7902 7.02384 14.6706 6.92418 14.574L2.56518 10.419L8.64318 9.55502C8.76903 9.53601 8.88841 9.48678 8.99108 9.41155C9.09374 9.33631 9.17665 9.23731 9.23268 9.12302L12.0002 3.63602L14.7707 9.12302C14.8267 9.23731 14.9096 9.33631 15.0123 9.41155C15.1149 9.48678 15.2343 9.53601 15.3602 9.55502L21.4382 10.4175L17.0792 14.5725C16.9793 14.6693 16.9047 14.7891 16.8621 14.9215C16.8194 15.0538 16.81 15.1947 16.8347 15.3315L17.8757 21.267L12.3467 18.426C12.2398 18.3709 12.1212 18.3421 12.0009 18.3421C11.8806 18.3421 11.7621 18.3709 11.6552 18.426H11.6567Z" fill="#161723"></path>
  </g>
  <defs>
  <clipPath id="clip0_4598_31720">
  <rect width="24" height="24" fill="white" transform="translate(0 0.299805)"></rect>
  </clipPath>
  </defs>
  </svg>