<svg width="61" height="60" viewBox="0 0 61 60" fill="none" xmlns="http://www.w3.org/2000/svg">
<rect x="1" y="0.5" width="59" height="59" rx="29.5" stroke="#B4B4B4"/>
<path d="M46.3338 21.4909C45.9202 21.2482 45.4098 21.2425 44.991 21.4753L39.3379 24.6232V35.3784L44.991 38.5264C45.4098 38.759 45.9202 38.7534 46.3338 38.5107C46.7463 38.268 47.0004 37.8243 47.0004 37.3456V22.656C47.0004 22.1773 46.7462 21.7336 46.3338 21.4909Z" fill="#B4B4B4"/>
<path d="M35.5146 20.3555H16.3521C15.6052 20.3555 15 20.9607 15 21.707V38.2924C15 39.0387 15.6052 39.644 16.3521 39.644H35.5146C36.2614 39.644 36.8667 39.0387 36.8667 38.2924V21.707C36.8666 20.9607 36.2614 20.3555 35.5146 20.3555ZM30.6011 35.2617C27.3875 37.0996 23.2917 35.9851 21.452 32.7706C19.6136 29.557 20.7292 25.4612 23.9427 23.6221C24.5802 23.2581 25.252 23.0138 25.9344 22.8747C24.0542 24.9674 23.6249 28.1084 25.099 30.6846C26.5729 33.2611 29.4968 34.4835 32.2553 33.9226C31.7896 34.4404 31.2385 34.8966 30.6011 35.2617Z" fill="#B4B4B4"/>
</svg>
