<svg width="60" height="60" viewBox="0 0 60 60" fill="none" xmlns="http://www.w3.org/2000/svg">
<rect x="0.5" y="0.5" width="59" height="59" rx="29.5" stroke="#B4B4B4"/>
<path d="M34.41 22.5L28 17.5V20.5H21.5C19.9087 20.5 18.3826 21.1321 17.2574 22.2574C16.1321 23.3826 15.5 24.9087 15.5 26.5V33.5C15.5 35.0913 16.1321 36.6174 17.2574 37.7426C18.3826 38.8679 19.9087 39.5 21.5 39.5H23.5V35.5H21.5C20.9696 35.5 20.4609 35.2893 20.0858 34.9142C19.7107 34.5391 19.5 34.0304 19.5 33.5V26.5C19.5 25.9696 19.7107 25.4609 20.0858 25.0858C20.4609 24.7107 20.9696 24.5 21.5 24.5H28V27.5L34.41 22.5Z" fill="#B4B4B4"/>
<path d="M17.5 26.5V33.5C17.5 34.5609 17.9214 35.5783 18.6716 36.3284C19.4217 37.0786 20.4391 37.5 21.5 37.5H23.5V35.5H21.5C20.9696 35.5 20.4609 35.2893 20.0858 34.9142C19.7107 34.5391 19.5 34.0304 19.5 33.5V26.5C19.5 25.9696 19.7107 25.4609 20.0858 25.0858C20.4609 24.7107 20.9696 24.5 21.5 24.5H28V27.5L34.41 22.5H21.5C20.4391 22.5 19.4217 22.9214 18.6716 23.6716C17.9214 24.4217 17.5 25.4391 17.5 26.5Z" fill="#B4B4B4"/>
<path d="M44.4998 26.5C44.4998 24.9087 43.8677 23.3826 42.7425 22.2574C41.6173 21.1321 40.0911 20.5 38.4998 20.5H36.4998V24.5H38.4998C39.0303 24.5 39.539 24.7107 39.9141 25.0858C40.2891 25.4609 40.4998 25.9696 40.4998 26.5V33.5C40.4998 34.0304 40.2891 34.5391 39.9141 34.9142C39.539 35.2893 39.0303 35.5 38.4998 35.5H31.9998V32.5L25.5898 37.5L31.9998 42.5V39.5H38.4998C40.0911 39.5 41.6173 38.8679 42.7425 37.7426C43.8677 36.6174 44.4998 35.0913 44.4998 33.5V26.5Z" fill="#B4B4B4"/>
</svg>
