<svg width="60" height="60" viewBox="0 0 60 60" fill="none" xmlns="http://www.w3.org/2000/svg">
<rect x="0.5" y="0.5" width="59" height="59" rx="29.5" stroke="#B4B4B4"/>
<path d="M20.6925 32.3716C20.3925 32.7981 20.4981 33.3852 20.9244 33.6816L21.5687 34.129C20.5171 35.1437 19.1068 35.7178 17.6337 35.7178H15.875V33.6866C15.875 33.1688 15.4553 32.7491 14.9375 32.7491C14.4197 32.7491 14 33.1688 14 33.6866V43.2491C14 43.7668 14.4197 44.1866 14.9375 44.1866C15.4553 44.1866 15.875 43.7668 15.875 43.2491V41.3428H17.1458C20.5103 41.3428 23.8005 39.9281 26.1377 37.3021L27.0756 37.9534C27.5014 38.2508 28.0922 38.1417 28.385 37.7109L29.0275 36.7678L21.4219 31.3359L20.6925 32.3716Z" fill="#B4B4B4"/>
<path d="M45.5909 32.455L45.2453 32.2188L38.0547 37.9644L40.1122 39.4456C40.514 39.7348 41.0759 39.6617 41.3891 39.2731L45.7916 33.8181C46.1367 33.3903 46.0406 32.7617 45.5909 32.455Z" fill="#B4B4B4"/>
<path d="M44.1353 29.1863L26.1085 16.1679C25.2988 15.583 24.1746 15.735 23.5491 16.5136L17.6246 23.8877C16.9509 24.7265 17.1209 25.9625 17.9967 26.5879L33.9449 37.977C34.2857 38.2203 34.7472 38.2083 35.0749 37.9465L44.1716 30.6788C44.6549 30.2926 44.6383 29.5495 44.1353 29.1863ZM37.4998 30.8441C36.9821 30.8441 36.5623 30.4244 36.5623 29.9066C36.5623 29.3889 36.9821 28.9691 37.4998 28.9691C38.0176 28.9691 38.4373 29.3889 38.4373 29.9066C38.4373 30.4244 38.0176 30.8441 37.4998 30.8441Z" fill="#B4B4B4"/>
</svg>
